HIERARCHY
ROOT Hips
{
	OFFSET 0.000000 89.005402 0.000000
	CHANNELS 6 Xposition Yposition Zposition Xrotation Yrotation Zrotation
	JOINT Spine
	{
		OFFSET 0.116900 10.681000 0.373400
		CHANNELS 3 Xrotation Yrotation Zrotation
		JOINT Spine1
		{
			OFFSET 0.000000 13.840401 0.053500
			CHANNELS 3 Xrotation Yrotation Zrotation
			JOINT Spine2
			{
				OFFSET 0.000000 14.712700 -0.366200
				CHANNELS 3 Xrotation Yrotation Zrotation
				JOINT Neck
				{
					OFFSET 0.000000 35.415497 -3.314200
					CHANNELS 3 Xrotation Yrotation Zrotation
					JOINT Head
					{
						OFFSET 0.000000 16.899200 1.218300
						CHANNELS 3 Xrotation Yrotation Zrotation
						JOINT HeadTop_End
						{
							OFFSET 0.000000 22.206207 2.192500
							CHANNELS 3 Xrotation Yrotation Zrotation
							End Site
							{
								OFFSET 0.000000 22.314178 0.000000
							}
						}
					}
				}
				JOINT LeftShoulder
				{
					OFFSET 12.896400 26.716293 -4.548400
					CHANNELS 3 Xrotation Yrotation Zrotation
					JOINT LeftArm
					{
						OFFSET 19.027000 -4.857010 -1.718400
						CHANNELS 3 Xrotation Yrotation Zrotation
						JOINT LeftForeArm
						{
							OFFSET 24.179897 0.000000 0.000000
							CHANNELS 3 Xrotation Yrotation Zrotation
							JOINT LeftHand
							{
								OFFSET 27.156403 0.000000 0.000000
								CHANNELS 3 Xrotation Yrotation Zrotation
								JOINT LeftHandIndex1
								{
									OFFSET 16.441200 0.000000 0.000000
									CHANNELS 3 Xrotation Yrotation Zrotation
									JOINT LeftHandIndex2
									{
										OFFSET 4.821899 0.000000 0.000000
										CHANNELS 3 Xrotation Yrotation Zrotation
										JOINT LeftHandIndex3
										{
											OFFSET 6.386497 0.000000 0.000000
											CHANNELS 3 Xrotation Yrotation Zrotation
											JOINT LeftHandIndex4
											{
												OFFSET 5.188988 0.000000 0.000000
												CHANNELS 3 Xrotation Yrotation Zrotation
												End Site
												{
													OFFSET -0.178703 5.185913 0.000177
												}
											}
										}
									}
								}
								JOINT LeftHandThumb1
								{
									OFFSET 6.534897 -5.032593 5.900300
									CHANNELS 3 Xrotation Yrotation Zrotation
									JOINT LeftHandThumb2
									{
										OFFSET 3.818176 -2.204422 2.204423
										CHANNELS 3 Xrotation Yrotation Zrotation
										JOINT LeftHandThumb3
										{
											OFFSET 3.252098 -1.877594 1.877601
											CHANNELS 3 Xrotation Yrotation Zrotation
											JOINT LeftHandThumb4
											{
												OFFSET 5.251778 -3.032120 3.032117
												CHANNELS 3 Xrotation Yrotation Zrotation
												End Site
												{
													OFFSET 0.000023 6.780014 0.000000
												}
											}
										}
									}
								}
							}
						}
					}
				}
				JOINT RightShoulder
				{
					OFFSET -12.896300 26.716293 -4.548400
					CHANNELS 3 Xrotation Yrotation Zrotation
					JOINT RightArm
					{
						OFFSET -19.027000 -4.857010 -1.718400
						CHANNELS 3 Xrotation Yrotation Zrotation
						JOINT RightForeArm
						{
							OFFSET -24.179897 0.000000 0.000000
							CHANNELS 3 Xrotation Yrotation Zrotation
							JOINT RightHand
							{
								OFFSET -27.156403 0.000000 0.000000
								CHANNELS 3 Xrotation Yrotation Zrotation
								JOINT RightHandThumb1
								{
									OFFSET -6.591202 -4.852203 5.988100
									CHANNELS 3 Xrotation Yrotation Zrotation
									JOINT RightHandThumb2
									{
										OFFSET -3.818176 -2.204422 2.204423
										CHANNELS 3 Xrotation Yrotation Zrotation
										JOINT RightHandThumb3
										{
											OFFSET -3.252098 -1.877594 1.877601
											CHANNELS 3 Xrotation Yrotation Zrotation
											JOINT RightHandThumb4
											{
												OFFSET -5.251778 -3.032120 3.032117
												CHANNELS 3 Xrotation Yrotation Zrotation
												End Site
												{
													OFFSET -0.000023 6.780014 0.000000
												}
											}
										}
									}
								}
								JOINT RightHandIndex1
								{
									OFFSET -16.029404 0.000000 0.000000
									CHANNELS 3 Xrotation Yrotation Zrotation
									JOINT RightHandIndex2
									{
										OFFSET -5.213303 0.000000 0.000000
										CHANNELS 3 Xrotation Yrotation Zrotation
										JOINT RightHandIndex3
										{
											OFFSET -6.386528 0.000000 0.000000
											CHANNELS 3 Xrotation Yrotation Zrotation
											JOINT RightHandIndex4
											{
												OFFSET -5.189026 0.000000 0.000000
												CHANNELS 3 Xrotation Yrotation Zrotation
												End Site
												{
													OFFSET 0.236702 5.183624 0.001972
												}
											}
										}
									}
								}
							}
						}
					}
				}
			}
		}
	}
	JOINT LeftUpLeg
	{
		OFFSET 14.073000 -7.904099 -1.463000
		CHANNELS 3 Xrotation Yrotation Zrotation
		JOINT LeftLeg
		{
			OFFSET -0.109806 -34.073280 4.093200
			CHANNELS 3 Xrotation Yrotation Zrotation
			JOINT LeftFoot
			{
				OFFSET 0.109806 -29.899420 -6.319000
				CHANNELS 3 Xrotation Yrotation Zrotation
				JOINT LeftToeBase
				{
					OFFSET 1.551100 -14.988700 20.535801
					CHANNELS 3 Xrotation Yrotation Zrotation
					JOINT LeftToe_End
					{
						OFFSET 0.221200 0.570800 13.248301
						CHANNELS 3 Xrotation Yrotation Zrotation
						End Site
						{
							OFFSET 0.000000 13.262435 0.000000
						}
					}
				}
			}
		}
	}
	JOINT RightUpLeg
	{
		OFFSET -13.839300 -7.904099 -1.463000
		CHANNELS 3 Xrotation Yrotation Zrotation
		JOINT RightLeg
		{
			OFFSET 0.109694 -34.073219 4.093300
			CHANNELS 3 Xrotation Yrotation Zrotation
			JOINT RightFoot
			{
				OFFSET -0.109694 -29.899384 -6.319200
				CHANNELS 3 Xrotation Yrotation Zrotation
				JOINT RightToeBase
				{
					OFFSET -1.551100 -14.988700 20.535801
					CHANNELS 3 Xrotation Yrotation Zrotation
					JOINT RightToe_End
					{
						OFFSET -0.221200 0.570900 13.248299
						CHANNELS 3 Xrotation Yrotation Zrotation
						End Site
						{
							OFFSET 0.000000 13.262440 0.000000
						}
					}
				}
			}
		}
	}
}
MOTION
Frames: 9
Frame Time: 0.033333
-0.605250 79.954262 0.492258 -6.088453 -43.049224 -3.851142 5.847398 4.642471 -1.411815 11.836540 9.037617 -3.083970 11.836542 9.037616 -3.083970 -4.303112 -1.272941 0.206306 -6.271880 20.437786 -0.377163 0.000000 0.000000 0.000000 1.392455 -0.696053 -7.877847 -14.260069 2.394311 -63.277161 9.865088 -47.524989 5.927949 16.172850 0.915258 18.795482 -0.902017 -6.980962 -3.808417 0.033300 0.803886 -16.418943 0.000004 0.000001 -0.000003 0.000000 -0.000000 -0.000001 9.163600 4.814106 -5.499019 -0.335361 0.032562 0.783682 0.000009 0.000010 0.000007 0.000003 -0.000001 0.000001 1.410922 9.461507 9.792748 1.220037 -24.270770 60.532907 -6.660713 41.858405 8.043795 6.225269 12.322333 11.673394 -8.895836 -4.903142 -0.383711 7.904823 -19.192478 -2.856856 -0.000001 0.000000 0.000006 0.000001 -0.000001 -0.000002 -1.085507 -1.215491 4.525251 0.142135 -1.115553 16.942629 -0.000001 -0.000002 0.000006 0.000000 -0.000001 -0.000001 -29.016310 5.035428 14.657666 35.566660 -14.251867 -0.196711 -3.694194 0.875519 -8.985246 -2.651469 -3.383964 0.834304 -0.000000 0.000003 0.000000 1.406170 -14.230646 -17.392843 32.239360 -7.596136 -0.161467 -24.845780 -6.101955 20.128306 -1.784993 -0.356699 0.333184 -0.000000 0.000001 0.000000 
-0.130731 78.070602 -0.717963 -3.630463 -46.168083 -1.889244 5.685615 3.733410 -1.275863 11.460059 7.255318 -2.640324 11.460069 7.255330 -2.640329 -6.091750 -0.189111 -1.654949 -8.534889 21.240083 -0.412782 0.000001 -0.000000 -0.000000 1.070914 0.871794 -7.838495 -11.065926 3.391468 -65.113730 11.058557 -58.072324 8.494182 13.732836 4.009303 13.937462 -0.403931 -5.930839 -12.363646 -0.304567 -0.196116 -25.104283 0.000002 -0.000001 0.000001 -0.000001 -0.000001 -0.000000 11.426317 3.659617 -7.210570 -1.700201 2.358492 -0.077773 0.000010 0.000008 0.000008 0.000002 -0.000002 0.000004 1.329834 7.666111 10.572172 0.009896 -27.038450 60.809639 -8.505086 43.834672 9.009022 7.876184 14.507822 11.608467 6.238337 1.257434 5.616745 5.955165 -18.014269 -1.929307 -0.000001 -0.000000 0.000006 -0.000001 0.000000 0.000000 1.400778 -0.277324 41.108074 -1.903640 1.523392 47.569303 -0.000002 -0.000004 0.000002 0.000000 -0.000001 0.000004 -32.864107 1.168929 15.296420 40.542729 -9.354862 -0.363649 -5.709588 1.283699 -11.364070 -2.641024 -3.361428 0.795742 0.000000 -0.000000 0.000000 -8.108632 -6.756344 -17.970031 46.575651 -8.365675 -0.393988 -27.634911 -6.948292 19.925832 -7.078300 -0.587498 1.713269 0.000000 0.000002 0.000000 
-0.118847 75.850204 -2.005794 -1.806405 -46.648409 -0.684942 5.656000 2.792666 -1.310470 11.371916 5.371175 -2.604386 11.371911 5.371179 -2.604385 -6.759384 0.924484 -6.318334 -10.934468 20.472555 1.627075 0.000000 -0.000001 0.000000 0.999182 2.699019 -10.140002 -9.436595 3.089572 -66.796962 8.953640 -64.671769 7.087820 9.398697 3.595864 17.037176 2.392232 -4.189637 -34.894658 -1.596672 -2.206777 -44.736960 0.000003 -0.000000 0.000003 -0.000000 0.000001 -0.000000 16.350897 0.538454 -10.982009 1.034845 4.400824 -0.238455 0.000012 0.000009 0.000004 -0.000002 0.000000 0.000000 0.553835 5.599074 13.707779 3.285606 -34.637276 60.048646 -11.782081 48.874969 12.499198 7.814021 15.126907 11.729203 18.016868 11.601824 7.050982 7.653622 -18.675467 -0.991608 -0.000001 -0.000000 0.000005 0.000000 -0.000000 0.000002 2.546430 1.227911 64.769311 -4.187656 2.537192 69.945467 -0.000001 -0.000001 0.000009 0.000003 -0.000002 0.000001 -36.747879 -4.387625 15.447632 45.912409 -5.886421 -0.411749 -7.356177 1.844221 -14.340670 -2.624438 -3.351635 0.766373 0.000000 -0.000001 0.000000 -15.167588 -3.110240 -16.008987 57.621784 -7.908235 -3.461709 -29.971242 -7.984718 20.187302 -11.996440 -1.926299 2.728252 0.000000 0.000001 0.000000 
-0.845201 73.931900 -3.173110 -1.128244 -43.100437 -0.614269 5.646526 1.952084 -1.663380 11.339911 3.608350 -3.220102 11.339902 3.608368 -3.220106 -9.222460 0.899846 -10.287960 -11.716003 17.810441 4.927036 -0.000000 -0.000001 0.000000 0.789625 5.204004 -11.612732 -7.698203 2.088523 -67.965771 12.953159 -71.759231 10.012504 8.506092 2.425700 20.825373 7.883277 -5.874097 -58.195213 -3.757754 -3.797422 -66.859233 0.000003 -0.000001 0.000001 0.000000 -0.000004 0.000002 21.319990 -3.624495 -14.871798 2.082994 7.710840 -0.404209 0.000015 0.000008 0.000004 -0.000003 -0.000000 -0.000001 0.845045 2.781857 12.550289 8.984258 -39.961238 63.629714 -15.656580 43.013113 16.027780 5.815122 17.847781 9.754736 22.836828 14.079228 8.322516 6.925449 -18.018230 -1.026931 -0.000001 0.000000 0.000007 0.000000 -0.000000 -0.000000 3.103849 1.565153 76.829718 -5.289351 2.691636 80.658879 0.000003 0.000002 0.000002 0.000001 0.000001 0.000001 -40.737881 -10.237401 14.571269 49.856242 -5.557924 -0.497523 -6.538874 1.956923 -16.878888 -3.998314 -3.684263 1.643050 0.000000 0.000000 -0.000000 -18.690017 -2.794349 -13.342893 67.106875 -8.744837 -6.998990 -31.294530 -8.691165 20.515279 -19.655534 -0.141084 4.141676 0.000000 0.000001 -0.000000 
-2.264007 72.609123 -3.698790 -1.217243 -34.749759 -1.596538 5.692079 1.428248 -1.858212 11.428560 2.230943 -3.975061 11.428559 2.230936 -3.975057 -9.930318 -1.158871 -12.608501 -12.465542 12.534148 10.474872 -0.000001 -0.000001 -0.000000 0.566368 6.011993 -10.762023 -7.906362 -0.565196 -68.926656 14.612283 -74.570933 10.115086 7.747868 -0.583627 22.124229 11.540187 -9.391191 -75.334254 -5.557174 -4.362940 -82.354057 0.000005 0.000003 -0.000000 -0.000000 0.000001 -0.000002 24.438569 -6.895675 -17.380245 2.131301 10.422820 -0.928691 0.000011 0.000009 0.000005 -0.000002 -0.000001 0.000002 1.439700 2.775308 7.084252 21.736193 -42.047799 75.375413 -19.491007 31.891021 16.081491 2.382895 18.570313 5.726910 25.755458 15.795422 9.041552 6.475719 -17.609531 -1.041617 -0.000003 0.000003 0.000005 0.000003 0.000000 -0.000001 3.347808 1.965756 84.325249 -5.969145 2.681901 87.314201 -0.000003 0.000001 0.000007 0.000001 -0.000001 0.000001 -47.171639 -15.236250 11.325910 54.478296 -7.717672 -0.422186 -2.496342 0.381642 -16.799033 -10.964934 -6.284992 6.487293 -0.000000 0.000000 0.000000 -15.267868 -5.355426 -10.585881 70.433922 -9.549186 -8.380400 -34.976337 -8.989398 19.670865 -23.493460 1.677133 4.629334 0.000000 0.000001 0.000000 
-4.030974 71.997406 -3.726329 -0.985637 -21.985015 -2.489908 6.043814 1.413200 -2.124193 12.133442 1.609461 -4.837674 12.133444 1.609458 -4.837674 -6.408265 -4.737474 -10.301097 -12.987740 8.148130 15.339676 -0.000000 0.000001 0.000000 0.253690 4.969411 -6.982081 -10.722956 -4.929795 -70.474069 19.697666 -72.475868 13.452324 9.546849 -2.713800 20.285780 11.167845 -10.686322 -81.023133 -5.863031 -4.403472 -84.811121 0.000005 0.000001 0.000000 0.000000 -0.000001 -0.000001 24.889430 -7.419147 -17.749030 1.934529 10.995495 -1.357091 0.000009 0.000007 0.000008 -0.000003 0.000001 0.000000 1.619681 5.311301 4.520390 30.796438 -44.097037 83.470355 -19.998869 24.460526 9.729399 8.581772 20.275890 5.746870 26.171219 16.053448 9.140173 6.409293 -17.551138 -1.047520 -0.000001 -0.000000 0.000007 0.000001 0.000002 0.000002 3.378858 2.034964 85.405307 -6.069183 2.675932 88.272873 -0.000002 -0.000006 0.000004 -0.000001 0.000000 -0.000002 -54.056743 -17.786055 5.805345 55.172718 -12.808471 -0.608759 3.579890 -1.468876 -14.825964 -16.623540 -9.770254 9.405520 -0.000000 -0.000001 0.000001 -8.140796 -11.911788 -6.923923 68.625103 -7.973852 -10.089540 -38.661917 -8.172996 18.030617 -25.480422 1.811672 3.053809 0.000000 0.000001 0.000000 
-5.561180 71.733246 -3.766713 0.037397 -6.941042 -2.403284 6.489317 2.164786 -2.365259 13.052795 2.525229 -5.272498 13.052789 2.525230 -5.272502 3.427228 -9.326880 -10.493159 -15.953913 1.452548 23.622667 0.000001 0.000000 -0.000000 1.370937 -1.821440 -7.079447 -12.644474 -6.057464 -68.351602 32.851287 -72.058298 25.617430 14.901497 -3.263049 17.558799 10.435587 -11.424799 -83.261666 -5.929495 -4.401014 -85.192649 0.000004 0.000001 0.000001 0.000002 -0.000000 0.000001 24.889418 -7.419125 -17.749029 2.028259 10.925042 -1.199894 0.000011 0.000009 0.000004 -0.000001 -0.000002 0.000002 1.156201 5.430156 0.265220 34.485147 -48.644966 82.518650 -19.894946 29.777159 7.846397 12.781498 21.880940 5.331650 26.171224 16.053453 9.140151 6.407251 -17.551778 -1.052047 -0.000000 -0.000002 0.000003 -0.000003 -0.000001 -0.000002 3.379837 2.035138 85.405266 -6.072157 2.678895 88.272791 -0.000001 -0.000002 0.000003 0.000000 -0.000002 -0.000001 -58.830776 -17.280654 -1.232589 50.067991 -17.914739 -1.110656 9.575032 -2.424141 -12.390605 -15.278052 -10.451824 9.051970 -0.000000 -0.000002 0.000000 -1.252548 -17.722078 -2.807305 64.841991 -5.411077 -9.768442 -39.241551 -7.422955 18.268859 -27.000522 2.298957 -1.981827 0.000000 0.000003 -0.000000 
-6.459278 70.989059 -3.804698 1.117596 6.253331 -1.396112 6.895612 3.506120 -2.790240 13.938380 4.622938 -6.095266 13.938367 4.622936 -6.095256 13.933602 -13.701754 -10.649097 -20.025973 -7.511488 34.915961 0.000003 -0.000000 -0.000000 1.653812 -3.838587 -8.799799 -12.564921 -5.584811 -64.386144 49.915760 -71.149561 40.396054 21.913796 -6.343406 12.292688 10.022563 -11.804075 -84.466955 -5.906587 -4.401120 -85.068387 0.000002 -0.000000 -0.000000 -0.000003 0.000001 -0.000000 24.889418 -7.419126 -17.749049 3.987116 9.759075 -0.102929 0.000010 0.000007 0.000009 -0.000000 -0.000001 0.000002 0.135730 4.591997 -6.055429 25.892868 -52.304827 68.169386 -17.391545 42.470557 6.379478 13.924593 16.849812 3.843084 26.171215 16.053461 9.140156 6.407205 -17.551626 -1.053876 -0.000000 0.000002 0.000008 -0.000000 -0.000002 -0.000001 3.380291 2.035205 85.405273 -6.074293 2.681101 88.272702 0.000000 -0.000002 0.000004 0.000001 -0.000000 0.000001 -62.745403 -14.620956 -8.519240 45.485027 -20.543192 -1.779944 16.003943 -2.923217 -10.754145 -13.049658 -11.023756 8.653182 -0.000001 -0.000003 -0.000001 3.002009 -20.937139 1.270179 64.003285 -8.288692 -7.579229 -41.699073 -5.768268 16.233053 -30.864173 1.797143 -6.227301 0.000001 -0.000001 0.000000 
-6.871817 69.650612 -3.987683 1.581753 14.069379 0.089236 6.764254 4.811083 -3.000551 13.762496 6.829288 -6.584835 13.762490 6.829279 -6.584824 20.218835 -15.311018 -13.877595 -17.780492 -13.439524 45.306943 -0.000002 0.000000 -0.000000 1.548031 -0.990106 -13.762774 -13.372261 -5.270559 -57.406128 58.019076 -69.203647 45.708712 26.621308 -11.425082 8.931984 8.922860 -12.421664 -88.195938 -5.735163 -4.402643 -84.105747 0.000005 0.000001 0.000001 0.000000 0.000001 0.000000 24.889419 -7.419115 -17.749035 5.139015 9.017965 1.143340 0.000009 0.000010 0.000008 -0.000002 -0.000000 0.000000 -1.157890 4.836561 -17.788630 -1.997483 -44.253472 39.819388 -15.781096 46.326858 5.378278 15.295642 9.359118 3.054380 26.171224 16.053453 9.140164 6.408063 -17.551115 -1.054596 -0.000000 0.000000 0.000005 0.000001 -0.000002 0.000001 3.380320 2.035208 85.405252 -6.075657 2.682611 88.272641 -0.000002 -0.000003 0.000006 -0.000000 -0.000002 -0.000000 -65.667918 -11.850762 -14.059722 44.476969 -19.793383 -2.047875 20.252590 -3.008560 -8.885080 -12.102479 -12.132076 7.503680 -0.000000 0.000002 0.000000 2.944732 -22.586700 2.237341 67.971481 -10.701152 -6.616658 -43.135015 -5.659835 16.582852 -35.261801 1.750294 -7.834333 -0.000001 0.000001 -0.000000 
